<?xml version="1.0" encoding="utf-8"?><svg version="1.1" xmlns="http://www.w3.org/2000/svg" xmlns:xlink="http://www.w3.org/1999/xlink" width="13" height="13" x="0px" y="0px" viewBox="0 0 13 13" style="enable-background:new 0 0 13 13;" xml:space="preserve"><style type="text/css">.st0{fill:#FFFFFF;stroke:#BEBEBE;stroke-width:0.77;stroke-miterlimit:10;} .st1{fill:#fed500;} .st2{fill:#5D5D5D;}</style><path class="st0" d="M11.15,12.5h-9.3c-0.74,0-1.35-0.6-1.35-1.35v-9.3C0.5,1.1,1.1,0.5,1.85,0.5h9.31c0.74,0,1.35,0.6,1.35,1.35 v9.31C12.5,11.9,11.9,12.5,11.15,12.5z"/><polygon class="st1" points="0,6.5 0,0 6.5,0 "/><path class="st2" d="M6.5,9.07c-1.1,0-1.65-0.82-1.65-2.46c0-1.69,0.55-2.53,1.65-2.53s1.65,0.84,1.65,2.53 C8.15,8.25,7.6,9.07,6.5,9.07z M6.5,8.44c0.62,0,0.92-0.61,0.92-1.83c0-1.27-0.31-1.9-0.92-1.9s-0.92,0.63-0.92,1.9 C5.58,7.83,5.88,8.44,6.5,8.44z"/></svg>