<?xml version="1.0" encoding="utf-8"?><svg version="1.1" xmlns="http://www.w3.org/2000/svg" width="13" height="13" viewBox="0 0 13 13"><style>.bg{fill:#fff;stroke:#ccc;stroke-width:0.77;stroke-miterlimit:10;}.fg{fill:#DA3B01;}.tx{fill:#333;}</style><path class="bg" d="M11.2,12.5H1.8c-0.7,0-1.3-0.6-1.3-1.3V1.8c0-0.7,0.6-1.3,1.3-1.3h9.3c0.7,0,1.3,0.6,1.3,1.3v9.3C12.5,11.9,11.9,12.5,11.2,12.5z"/><polygon class="fg" points="0,6.5 0,0 6.5,0 "/><path class="tx" d="M2.7,9.3V8.4H4v0.9C4,9.3,2.7,9.3,2.7,9.3z M2.7,5.5v-1l1.2-0.4V5L2.7,5.5z M3.9,9.3V4.1h1v5.2C4.9,9.3,3.9,9.3,3.9,9.3z M4.8,9.3V8.4H6v0.9C6,9.3,4.8,9.3,4.8,9.3z"/><path class="tx" d="M8.7,9.4c-1.2,0-1.8-0.9-1.8-2.6C6.9,4.9,7.5,4,8.7,4s1.8,0.9,1.8,2.7S9.9,9.4,8.7,9.4z M8.7,8.4c0.6,0,0.8-0.6,0.8-1.7c0-1.2-0.3-1.8-0.8-1.8c-0.6,0-0.8,0.6-0.8,1.8C7.9,7.9,8.1,8.4,8.7,8.4z"/></svg>