<?xml version="1.0" encoding="utf-8"?><svg version="1.1" xmlns="http://www.w3.org/2000/svg" xmlns:xlink="http://www.w3.org/1999/xlink" width="13" height="13" x="0px" y="0px" viewBox="0 0 13 13" style="enable-background:new 0 0 13 13;" xml:space="preserve"><style type="text/css">.st0{fill:#FFFFFF;stroke:#BEBEBE;stroke-width:0.77;stroke-miterlimit:10;} .st1{fill:#9e0a33;} .st2{fill:#5D5D5D;}</style><path class="st0" d="M11.15,12.5h-9.3c-0.74,0-1.35-0.6-1.35-1.35v-9.3C0.5,1.1,1.1,0.5,1.85,0.5h9.31c0.74,0,1.35,0.6,1.35,1.35 v9.31C12.5,11.9,11.9,12.5,11.15,12.5z"/><polygon class="st1" points="0,6.5 0,0 6.5,0 "/><path class="st2" d="M2.48,9.42V8.68h1.47v0.74H2.48z M2.55,5.13V4.35l1.31-0.47v0.8L2.55,5.13z M3.87,9.42V3.88h0.81v5.55H3.87 V9.42z M4.6,9.42V8.68h1.32v0.74H4.6z"/><path class="st2" d="M8.84,9.5c-1.26,0-1.89-0.94-1.89-2.81c0-1.93,0.63-2.89,1.89-2.89s1.89,0.96,1.89,2.89 C10.73,8.56,10.1,9.5,8.84,9.5z M8.84,8.78c0.7,0,1.05-0.7,1.05-2.09c0-1.45-0.35-2.17-1.05-2.17S7.79,5.24,7.79,6.69 C7.79,8.08,8.14,8.78,8.84,8.78z"/></svg>