<?xml version="1.0" encoding="utf-8"?><svg version="1.1" xmlns="http://www.w3.org/2000/svg" width="13" height="13" viewBox="0 0 13 13"><style>.st0{fill:#fff;stroke:#bbb;stroke-width:0.77;stroke-miterlimit:10}.st1{fill:#96d757}.st2{fill:#555}</style><path class="st0" d="M11.15,12.5H1.85c-0.74,0-1.35-0.6-1.35-1.35V1.85C0.5,1.1,1.1,0.5,1.85,0.5h9.31c0.74,0,1.35,0.6,1.35,1.35 v9.31C12.5,11.9,11.9,12.5,11.15,12.5z"/><polygon class="st1" points="0,6.5 0,0 6.5,0 "/><path class="st2" d="M2.48,9.42V8.68h1.47v0.74H2.48z M2.55,5.13V4.35l1.31-0.47v0.8L2.55,5.13z M3.87,9.42V3.88h0.81v5.55H3.87z  M4.6,9.42V8.68h1.32v0.74H4.6z"/><path class="st2" d="M7.09,9.42V8.53c0.86-0.47,1.5-0.97,1.92-1.48c0.42-0.51,0.63-1.04,0.63-1.58c0-0.32-0.08-0.56-0.23-0.71 S9.02,4.52,8.7,4.52c-0.21,0-0.43,0.06-0.66,0.18S7.62,4.99,7.45,5.19L6.91,4.65C7.09,4.4,7.35,4.19,7.68,4.03 C8.01,3.88,8.36,3.8,8.72,3.8c0.59,0,1.02,0.14,1.31,0.42s0.44,0.7,0.44,1.26s-0.18,1.1-0.53,1.61s-0.9,1.01-1.62,1.48v0.86H7.09z  M7.33,9.42V8.68h3.38v0.74H7.33z"/></svg>