<?xml version="1.0" encoding="utf-8"?><svg version="1.1" xmlns="http://www.w3.org/2000/svg" width="13" height="13" viewBox="0 0 13 13"><style>.bg{fill:#fff;stroke:#ccc;stroke-width:0.77;stroke-miterlimit:10;}.fg{fill:#F7B189;}.tx{fill:#333;}</style><path class="bg" d="M11.2,12.5H1.8c-0.7,0-1.3-0.6-1.3-1.3V1.8c0-0.7,0.6-1.3,1.3-1.3h9.3c0.7,0,1.3,0.6,1.3,1.3v9.3C12.5,11.9,11.9,12.5,11.2,12.5z"/><polygon class="fg" points="0,6.5 0,0 6.5,0 "/><path class="tx" d="M2.7,9.3V8.4H4v0.9H2.7z M2.7,5.5V4.5l1.2-0.4V5L2.7,5.5z M3.9,9.3V4.1h1v5.2H3.9z M4.8,9.3V8.4H6v0.9H4.8z"/><path class="tx" d="M7,9.3v-1C7.8,7.9,8.3,7.5,8.7,7c0.4-0.4,0.6-0.9,0.6-1.4c0-0.2-0.1-0.4-0.2-0.5C9,5,8.8,4.9,8.6,4.9C8.4,4.9,8.1,5,7.9,5.1C7.7,5.2,7.5,5.4,7.3,5.6L6.8,4.9c0.2-0.3,0.4-0.5,0.8-0.6C7.9,4.1,8.2,4,8.6,4c0.6,0,1,0.1,1.3,0.4c0.3,0.3,0.4,0.7,0.4,1.2c0,0.5-0.1,1-0.4,1.4S9.1,7.9,8.5,8.3v1H7z M7.2,9.3V8.4h3.3v0.9H7.2z"/></svg>