<?xml version="1.0" encoding="utf-8"?><svg version="1.1" xmlns="http://www.w3.org/2000/svg" width="13" height="13" viewBox="0 0 13 13"><style>.st0{fill:#fff;stroke:#bbb;stroke-width:0.77;stroke-miterlimit:10}.st1{fill:#85c860}.st2{fill:#555}</style><path class="st0" d="M11.15,12.5H1.85c-0.74,0-1.35-0.6-1.35-1.35V1.85C0.5,1.1,1.1,0.5,1.85,0.5h9.31c0.74,0,1.35,0.6,1.35,1.35 v9.31C12.5,11.9,11.9,12.5,11.15,12.5z"/><polygon class="st1" points="0,6.5 0,0 6.5,0 "/><path class="st2" d="M2.48,9.42V8.68h1.47v0.74H2.48z M2.55,5.13V4.35l1.31-0.47v0.8L2.55,5.13z M3.87,9.42V3.88h0.81v5.55H3.87z  M4.6,9.42V8.68h1.32v0.74H4.6z"/><path class="st2" d="M7.98,6.88L7.89,6.38c0.41-0.05,0.75-0.14,1-0.24S9.34,5.9,9.46,5.75s0.18-0.32,0.18-0.51 c0-0.23-0.07-0.4-0.22-0.53S9.06,4.52,8.79,4.52c-0.2,0-0.41,0.05-0.63,0.15S7.73,4.91,7.53,5.11L6.99,4.58 C7.23,4.3,7.5,4.11,7.82,3.98S8.49,3.8,8.88,3.8c0.5,0,0.9,0.11,1.17,0.32s0.41,0.52,0.41,0.92c0,0.33-0.11,0.62-0.32,0.87 S9.65,6.32,9.3,6.42v0.47H7.98z M8.51,9.5c-0.29,0-0.55-0.02-0.79-0.05S7.27,9.37,7.09,9.31l0.1-0.75 c0.16,0.04,0.34,0.09,0.54,0.14s0.45,0.07,0.76,0.07c0.41,0,0.72-0.08,0.95-0.24s0.34-0.39,0.34-0.68c0-0.21-0.06-0.39-0.19-0.53 S9.25,7.07,9,7C8.76,6.92,8.46,6.88,8.11,6.88H7.98L7.89,6.38l1.2,0.09c0.44,0.03,0.8,0.18,1.08,0.43 c0.28,0.25,0.41,0.6,0.41,1.04c0,0.5-0.18,0.88-0.54,1.15S9.17,9.5,8.51,9.5z"/></svg>