<?xml version="1.0" encoding="utf-8"?><svg version="1.1" xmlns="http://www.w3.org/2000/svg" width="13" height="13" viewBox="0 0 13 13"><style>.bg{fill:#fff;stroke:#ccc;stroke-width:0.77;stroke-miterlimit:10;}.fg{fill:#CA5010;}.tx{fill:#333;}</style><path class="bg" d="M11.2,12.5H1.8c-0.7,0-1.3-0.6-1.3-1.3V1.8c0-0.7,0.6-1.3,1.3-1.3h9.3c0.7,0,1.3,0.6,1.3,1.3v9.3C12.5,11.9,11.9,12.5,11.2,12.5z"/><polygon class="fg" points="0,6.5 0,0 6.5,0 "/><path class="tx" d="M2.7,9.3V8.4H4v0.9H2.7z M2.7,5.5V4.5l1.2-0.4V5L2.7,5.5z M3.9,9.3V4.1h1v5.2H3.9z M4.8,9.3V8.4H6v0.9H4.8z"/><path class="tx" d="M8.7,9.4c-0.6,0-1-0.1-1.3-0.4C7.1,8.6,6.9,8.2,6.9,7.7h1c0,0.2,0.1,0.4,0.2,0.5s0.3,0.2,0.6,0.2c0.3,0,0.5-0.1,0.6-0.2c0.1-0.2,0.2-0.4,0.2-0.6c0-0.2-0.1-0.4-0.2-0.6C9.2,6.9,9,6.8,8.7,6.8C8.4,6.8,8.2,6.9,7.9,7l0.2-0.9C8.2,6,8.4,6,8.5,6c0.2,0,0.3-0.1,0.5-0.1c0.5,0,0.8,0.2,1.1,0.5c0.3,0.3,0.4,0.7,0.4,1.2c0,0.4-0.1,0.7-0.2,0.9C10.2,8.8,10,9,9.7,9.1S9.1,9.4,8.7,9.4z M7.2,7l0.1-2.9h1L8.2,6.3L7.9,7H7.2z M7.7,5L7.7,4.1h2.6V5H7.7z"/></svg>