<?xml version="1.0" encoding="utf-8"?><svg version="1.1" xmlns="http://www.w3.org/2000/svg" width="13" height="13" viewBox="0 0 13 13"><style type="text/css">.st0{fill:#FFFFFF;stroke:#BEBEBE;stroke-width:0.77;stroke-miterlimit:10;} .st1{fill:#5ca576;} .st2{fill:#5D5D5D;}</style><path class="st0" d="M11.15,12.5H1.85c-0.74,0-1.35-0.6-1.35-1.35V1.85C0.5,1.1,1.1,0.5,1.85,0.5h9.31c0.74,0,1.35,0.6,1.35,1.35 v9.31C12.5,11.9,11.9,12.5,11.15,12.5z"/><polygon class="st1" points="0,6.5 0,0 6.5,0 "/><path class="st2" d="M2.48,9.42V8.68h1.47v0.74H2.48z M2.55,5.13V4.35l1.31-0.47v0.8L2.55,5.13z M3.87,9.42V3.88h0.81v5.55H3.87z  M4.6,9.42V8.68h1.32v0.74H4.6z"/><path class="st2" d="M8.9,9.5c-0.6,0-1.06-0.14-1.39-0.43S7.02,8.39,7.02,7.87h0.84c0,0.29,0.09,0.51,0.27,0.67 s0.44,0.24,0.78,0.24c0.33,0,0.59-0.1,0.77-0.3S9.95,8,9.95,7.63c0-0.36-0.1-0.63-0.3-0.83S9.18,6.51,8.81,6.51 S8.11,6.6,7.79,6.77L7.86,6.1c0.21-0.12,0.41-0.2,0.61-0.24s0.41-0.06,0.61-0.06c0.54,0,0.95,0.16,1.25,0.48s0.44,0.77,0.44,1.35 c0,0.4-0.07,0.73-0.22,1.01s-0.36,0.49-0.64,0.64S9.3,9.5,8.9,9.5z M7.35,6.77l0.08-2.89h0.84L8.19,6.28l-0.4,0.48H7.35z M7.8,4.6 L7.73,3.88h2.69V4.6H7.8z"/></svg>