<?xml version="1.0" encoding="utf-8"?><svg version="1.1" xmlns="http://www.w3.org/2000/svg" width="13" height="13" viewBox="0 0 13 13"><style>.st0{fill:#fff;stroke:#bbb;stroke-width:0.77;stroke-miterlimit:10}.st1{fill:#499280}.st2{fill:#555}</style><path class="st0" d="M11.15,12.5H1.85c-0.74,0-1.35-0.6-1.35-1.35V1.85C0.5,1.1,1.1,0.5,1.85,0.5h9.31c0.74,0,1.35,0.6,1.35,1.35 v9.31C12.5,11.9,11.9,12.5,11.15,12.5z"/><polygon class="st1" points="0,6.5 0,0 6.5,0 "/><path class="st2" d="M2.48,9.42V8.68h1.47v0.74H2.48z M2.55,5.13V4.35l1.31-0.47v0.8L2.55,5.13z M3.87,9.42V3.88h0.81v5.55H3.87z  M4.6,9.42V8.68h1.32v0.74H4.6z"/><path class="st2" d="M7,7.53V7.18c0-1.06,0.27-1.87,0.81-2.42c0.54-0.55,1.36-0.86,2.46-0.91l0.08,0.74 C8.69,4.67,7.87,5.41,7.87,6.82v0.45L7,7.53z M8.88,9.5c-0.64,0-1.12-0.16-1.42-0.48C7.15,8.7,7,8.2,7,7.53l0.65-0.71h0.29 C8.02,6.52,8.17,6.3,8.4,6.14s0.52-0.24,0.85-0.24c0.48,0,0.86,0.15,1.12,0.45s0.39,0.72,0.39,1.27c0,0.59-0.17,1.05-0.5,1.38 S9.47,9.5,8.88,9.5z M8.9,8.78c0.33,0,0.59-0.1,0.77-0.31s0.28-0.49,0.28-0.85c0-0.32-0.08-0.57-0.26-0.74S9.28,6.63,8.96,6.63 c-0.36,0-0.64,0.09-0.84,0.28c-0.2,0.19-0.29,0.45-0.29,0.8c0,0.34,0.09,0.6,0.28,0.79S8.57,8.78,8.9,8.78z"/></svg>