<?xml version="1.0" encoding="utf-8"?><svg version="1.1" xmlns="http://www.w3.org/2000/svg" width="13" height="13" viewBox="0 0 13 13"><style type="text/css">.st0{fill:#FFFFFF;stroke:#BEBEBE;stroke-width:0.77;stroke-miterlimit:10;} .st1{fill:#33808b;} .st2{fill:#5D5D5D;}</style><path class="st0" d="M11.15,12.5H1.85c-0.74,0-1.35-0.6-1.35-1.35V1.85C0.5,1.1,1.1,0.5,1.85,0.5h9.31c0.74,0,1.35,0.6,1.35,1.35 v9.31C12.5,11.9,11.9,12.5,11.15,12.5z"/><polygon class="st1" points="0,6.5 0,0 6.5,0 "/><path class="st2" d="M2.48,9.42V8.68h1.47v0.74H2.48z M2.55,5.13V4.35l1.31-0.47v0.8L2.55,5.13z M3.87,9.42V3.88h0.81v5.55H3.87z  M4.6,9.42V8.68h1.32v0.74H4.6z"/><path class="st2" d="M6.94,4.62V3.88h4.07l-0.55,0.74H6.94z M6.94,5.82V3.99h0.84v1.83H6.94z M8.21,9.42l1.91-5.55h0.89L9.1,9.42 H8.21z"/></svg>