<?xml version="1.0" encoding="utf-8"?><svg version="1.1" xmlns="http://www.w3.org/2000/svg" xmlns:xlink="http://www.w3.org/1999/xlink" width="13" height="13" x="0px" y="0px" viewBox="0 0 13 13" style="enable-background:new 0 0 13 13;" xml:space="preserve"><style type="text/css">.st0{fill:#FFFFFF;stroke:#BEBEBE;stroke-width:0.77;stroke-miterlimit:10;} .st1{fill:#206f95;} .st2{fill:#5D5D5D;}</style><path class="st0" d="M11.15,12.5H1.85c-0.74,0-1.35-0.6-1.35-1.35V1.85C0.5,1.1,1.1,0.5,1.85,0.5h9.31c0.74,0,1.35,0.6,1.35,1.35 v9.31C12.5,11.9,11.9,12.5,11.15,12.5z"/><polygon class="st1" points="0,6.5 0,0 6.5,0 "/><path class="st2" d="M2.48,9.42V8.68h1.47v0.74H2.48z M2.55,5.13V4.35l1.31-0.47v0.8L2.55,5.13z M3.87,9.42V3.88h0.81v5.55H3.87z  M4.6,9.42V8.68h1.32v0.74H4.6z"/><path class="st2" d="M8.84,9.5c-0.6,0-1.07-0.14-1.4-0.42C7.12,8.8,6.95,8.41,6.95,7.9c0-0.47,0.16-0.83,0.49-1.08 c0.33-0.25,0.79-0.38,1.4-0.38s1.07,0.13,1.4,0.38c0.33,0.25,0.49,0.61,0.49,1.08c0,0.51-0.17,0.9-0.49,1.18S9.45,9.5,8.84,9.5z  M8.84,6.51c-0.55,0-0.98-0.11-1.28-0.34C7.26,5.94,7.11,5.62,7.11,5.2c0-0.45,0.15-0.79,0.46-1.04C7.87,3.92,8.29,3.8,8.84,3.8 c0.55,0,0.98,0.12,1.28,0.37s0.45,0.59,0.45,1.04c0,0.41-0.15,0.73-0.45,0.96S9.4,6.51,8.84,6.51z M8.84,8.78 c0.34,0,0.6-0.08,0.79-0.24s0.28-0.39,0.28-0.68c0-0.31-0.09-0.56-0.28-0.73C9.45,6.96,9.18,6.87,8.84,6.87s-0.6,0.09-0.79,0.26 C7.87,7.31,7.77,7.55,7.77,7.86c0,0.29,0.09,0.52,0.28,0.68S8.5,8.78,8.84,8.78z M8.84,6.12c0.29,0,0.52-0.07,0.68-0.2 S9.76,5.6,9.76,5.36c0-0.27-0.08-0.48-0.24-0.62S9.14,4.52,8.84,4.52S8.33,4.59,8.17,4.74S7.93,5.09,7.93,5.36 c0,0.24,0.08,0.42,0.24,0.56S8.55,6.12,8.84,6.12z M8.2,6.67v-0.4h1.3v0.4H8.2z"/></svg>