<?xml version="1.0" encoding="utf-8"?><svg version="1.1" xmlns="http://www.w3.org/2000/svg" width="13" height="13" viewBox="0 0 13 13"><style>.bg{fill:#fff;stroke:#ccc;stroke-width:0.77;stroke-miterlimit:10}.fg{fill:#10629d}.tx{fill:#333}</style><path class="bg" d="M11.15,12.5H1.85c-0.74,0-1.35-0.6-1.35-1.35V1.85C0.5,1.1,1.1,0.5,1.85,0.5h9.31c0.74,0,1.35,0.6,1.35,1.35 v9.31C12.5,11.9,11.9,12.5,11.15,12.5z"/><polygon class="fg" points="0,6.5 0,0 6.5,0 "/><path class="tx" d="M2.48,9.42V8.68h1.47v0.74H2.48z M2.55,5.13V4.35l1.31-0.47v0.8L2.55,5.13z M3.87,9.42V3.88h0.81v5.55H3.87z  M4.6,9.42V8.68h1.32v0.74H4.6z"/><path class="tx" d="M8.47,7.45C7.98,7.45,7.61,7.3,7.35,7C7.08,6.7,6.95,6.27,6.95,5.73c0-0.59,0.17-1.05,0.5-1.38 c0.33-0.33,0.8-0.49,1.4-0.49c0.64,0,1.12,0.16,1.42,0.48s0.46,0.82,0.46,1.5l-0.65,0.71H9.79C9.71,6.83,9.56,7.05,9.32,7.21 S8.8,7.45,8.47,7.45z M7.46,9.5L7.38,8.76c1.65-0.07,2.48-0.81,2.48-2.23V6.09l0.87-0.26v0.34c0,1.06-0.27,1.86-0.81,2.42 S8.56,9.45,7.46,9.5z M8.76,6.73c0.36,0,0.64-0.09,0.84-0.28s0.29-0.45,0.29-0.8c0-0.34-0.09-0.6-0.28-0.79S9.16,4.57,8.82,4.57 c-0.33,0-0.59,0.1-0.77,0.3S7.77,5.36,7.77,5.73c0,0.32,0.08,0.57,0.26,0.74S8.44,6.73,8.76,6.73z"/></svg>