<?xml version="1.0" encoding="utf-8"?><svg version="1.1" xmlns="http://www.w3.org/2000/svg" width="13" height="13" viewBox="0 0 13 13"><style>.bg{fill:#fff;stroke:#ccc;stroke-width:0.77;stroke-miterlimit:10;}.fg{fill:#EAA300;}.tx{fill:#333;}</style><path class="bg" d="M11.2,12.5H1.8c-0.7,0-1.3-0.6-1.3-1.3V1.8c0-0.7,0.6-1.3,1.3-1.3h9.3c0.7,0,1.3,0.6,1.3,1.3v9.3C12.5,11.9,11.9,12.5,11.2,12.5z"/><polygon class="fg" points="0,6.5 0,0 6.5,0 "/><path class="tx" d="M2.7,9.3V8.4H4v0.9H2.7z M2.7,5.5V4.5l1.2-0.4V5L2.7,5.5z M3.9,9.3V4.1h1v5.2H3.9z M4.8,9.3V8.4H6v0.9H4.8z"/><path class="tx" d="M8.3,7.4C7.8,7.4,7.5,7.3,7.2,7C7,6.7,6.9,6.3,6.9,5.8c0-0.5,0.2-1,0.5-1.3c0.3-0.3,0.8-0.5,1.4-0.5c0.6,0,1,0.2,1.3,0.5c0.3,0.3,0.5,0.8,0.5,1.4L9.7,6.6H9.4C9.3,6.9,9.2,7.1,9,7.2C8.8,7.4,8.6,7.4,8.3,7.4z M7.3,9.4L7.3,8.4c1.5-0.1,2.2-0.7,2.2-1.9V6.3l1-0.4v0.3c0,1-0.3,1.7-0.8,2.2C9.2,9,8.4,9.3,7.3,9.4z M8.7,6.5c0.3,0,0.5-0.1,0.6-0.2C9.4,6.2,9.5,6,9.5,5.7c0-0.2-0.1-0.4-0.2-0.5C9.1,5.1,8.9,5,8.7,5C8.4,5,8.2,5.1,8.1,5.2S7.9,5.5,7.9,5.8C7.9,6,8,6.2,8.1,6.3C8.2,6.5,8.4,6.5,8.7,6.5z"/></svg>