<?xml version="1.0" encoding="utf-8"?><svg version="1.1" xmlns="http://www.w3.org/2000/svg" width="13" height="13" viewBox="0 0 13 13"><style>.bg{fill:#fff;stroke:#ccc;stroke-width:0.77;stroke-miterlimit:10;}.fg{fill:#E6808A;}.tx{fill:#333;}</style><path class="bg" d="M11.2,12.5H1.8c-0.7,0-1.3-0.6-1.3-1.3V1.8c0-0.7,0.6-1.3,1.3-1.3h9.3c0.7,0,1.3,0.6,1.3,1.3v9.3C12.5,11.9,11.9,12.5,11.2,12.5z"/><polygon class="fg" points="0,6.5 0,0 6.5,0 "/><path class="tx" d="M4.8,9.3v-1C5.6,7.9,6.1,7.5,6.5,7s0.6-0.9,0.6-1.4c0-0.2-0.1-0.4-0.2-0.5C6.8,5,6.6,4.9,6.4,4.9C6.2,4.9,5.9,5,5.7,5.1C5.5,5.2,5.3,5.4,5.1,5.6L4.6,4.9C4.8,4.6,5,4.4,5.3,4.3C5.7,4.1,6,4,6.4,4c0.6,0,1,0.1,1.3,0.4c0.3,0.3,0.4,0.7,0.4,1.2c0,0.5-0.1,1-0.4,1.4S6.9,7.9,6.3,8.3v1H4.8z M5,9.3V8.4h3.3v0.9H5z"/></svg>