<?xml version="1.0" encoding="utf-8"?><svg version="1.1" xmlns="http://www.w3.org/2000/svg" xmlns:xlink="http://www.w3.org/1999/xlink" width="13" height="13" x="0px" y="0px" viewBox="0 0 13 13" style="enable-background:new 0 0 13 13;" xml:space="preserve"><style type="text/css">.st0{fill:#FFFFFF;stroke:#BEBEBE;stroke-width:0.77;stroke-miterlimit:10;} .st1{fill:#fed500;} .st2{fill:#5D5D5D;}</style><path class="st0" d="M11.15,12.5H1.85c-0.74,0-1.35-0.6-1.35-1.35V1.85C0.5,1.1,1.1,0.5,1.85,0.5h9.31c0.74,0,1.35,0.6,1.35,1.35 v9.31C12.5,11.9,11.9,12.5,11.15,12.5z"/><polygon class="st1" points="0,6.5 0,0 6.5,0 "/><path class="st2" d="M4.97,9V8.22c0.75-0.42,1.31-0.85,1.68-1.29C7.02,6.48,7.2,6.02,7.2,5.54C7.2,5.26,7.14,5.06,7,4.92 S6.65,4.71,6.38,4.71C6.19,4.71,6,4.76,5.8,4.87S5.43,5.12,5.28,5.3L4.81,4.83C4.97,4.6,5.19,4.42,5.48,4.28s0.59-0.21,0.91-0.21 c0.51,0,0.9,0.12,1.15,0.36c0.25,0.24,0.38,0.61,0.38,1.1S7.77,6.5,7.46,6.95C7.14,7.4,6.67,7.83,6.04,8.25V9H4.97z M5.17,9V8.35 h2.95V9H5.17z"/></svg>