<?xml version="1.0" encoding="utf-8"?><svg version="1.1" xmlns="http://www.w3.org/2000/svg" width="13" height="13" viewBox="0 0 13 13"><style>.bg{fill:#fff;stroke:#ccc;stroke-width:0.77;stroke-miterlimit:10}.fg{fill:#0458a4}.tx{fill:#333}</style><path class="bg" d="M11.15,12.5h-9.3c-0.74,0-1.35-0.6-1.35-1.35v-9.3C0.5,1.1,1.1,0.5,1.85,0.5h9.31c0.74,0,1.35,0.6,1.35,1.35 v9.31C12.5,11.9,11.9,12.5,11.15,12.5z"/><polygon class="fg" points="0,6.5 0,0 6.5,0 "/><path class="tx" d="M2.41,9.42V8.53c0.86-0.47,1.5-0.97,1.92-1.48s0.63-1.04,0.63-1.58c0-0.32-0.08-0.56-0.23-0.71 s-0.4-0.24-0.71-0.24c-0.21,0-0.43,0.06-0.66,0.18S2.93,4.99,2.77,5.19L2.23,4.65C2.41,4.4,2.66,4.19,2.99,4.03S3.67,3.8,4.03,3.8 c0.59,0,1.02,0.14,1.31,0.42s0.44,0.7,0.44,1.26S5.6,6.57,5.25,7.08s-0.9,1.01-1.62,1.48v0.86C3.63,9.42,2.41,9.42,2.41,9.42z  M2.64,9.42V8.68h3.38v0.74H2.64z"/><path class="tx" d="M8.84,9.5c-1.26,0-1.89-0.94-1.89-2.81c0-1.93,0.63-2.89,1.89-2.89s1.89,0.96,1.89,2.89 C10.73,8.56,10.1,9.5,8.84,9.5z M8.84,8.78c0.7,0,1.05-0.7,1.05-2.09c0-1.45-0.35-2.17-1.05-2.17S7.79,5.24,7.79,6.69 C7.79,8.08,8.14,8.78,8.84,8.78z"/></svg>