<?xml version="1.0" encoding="utf-8"?><svg version="1.1" xmlns="http://www.w3.org/2000/svg" width="13" height="13" viewBox="0 0 13 13"><style>.bg{fill:#fff;stroke:#ccc;stroke-width:0.77;stroke-miterlimit:10;}.fg{fill:#DFBE00;}.tx{fill:#333;}</style><path class="bg" d="M11.2,12.5H1.8c-0.7,0-1.3-0.6-1.3-1.3V1.8c0-0.7,0.6-1.3,1.3-1.3h9.3c0.7,0,1.3,0.6,1.3,1.3v9.3C12.5,11.9,11.9,12.5,11.2,12.5z"/><polygon class="fg" points="0,6.5 0,0 6.5,0 "/><path class="tx" d="M2.6,9.3v-1C3.4,7.9,3.9,7.5,4.3,7s0.6-0.9,0.6-1.4c0-0.2-0.1-0.4-0.2-0.5C4.6,5,4.4,4.9,4.2,4.9C4,4.9,3.7,5,3.5,5.1C3.3,5.2,3.1,5.4,2.9,5.6L2.4,4.9c0.2-0.3,0.4-0.5,0.8-0.6C3.5,4.1,3.8,4,4.2,4c0.6,0,1,0.1,1.3,0.4c0.3,0.3,0.4,0.7,0.4,1.2c0,0.5-0.1,1-0.4,1.4S4.7,7.9,4.1,8.3v1H2.6z M2.8,9.3V8.4h3.3v0.9H2.8z"/><path class="tx" d="M6.7,8.2l0.6-3.9h1L7.7,8.2H6.7z M6.7,8.2l0.6-0.9h2v0.9H6.7z M9.2,9.3V4.1h1v5.2H9.2z M10.1,8.2V7.4h0.6v0.9H10.1z"/></svg>