<?xml version="1.0" encoding="utf-8"?><svg version="1.1" xmlns="http://www.w3.org/2000/svg" width="13" height="13" viewBox="0 0 13 13"><style type="text/css">.st0{fill:#FFFFFF;stroke:#BEBEBE;stroke-width:0.77;stroke-miterlimit:10;} .st1{fill:#5479d9;} .st2{fill:#5D5D5D;}</style><path class="st0" d="M11.15,12.5H1.85c-0.74,0-1.35-0.6-1.35-1.35V1.85C0.5,1.1,1.1,0.5,1.85,0.5h9.31c0.74,0,1.35,0.6,1.35,1.35 v9.31C12.5,11.9,11.9,12.5,11.15,12.5z"/><polygon class="st1" points="0,6.5 0,0 6.5,0 "/><path class="st2" d="M2.41,9.42V8.53c0.86-0.47,1.5-0.97,1.92-1.48c0.42-0.51,0.63-1.04,0.63-1.58c0-0.32-0.08-0.56-0.23-0.71 S4.33,4.52,4.02,4.52c-0.21,0-0.43,0.06-0.66,0.18S2.93,4.99,2.77,5.19L2.23,4.65C2.41,4.4,2.66,4.19,2.99,4.03S3.67,3.8,4.03,3.8 c0.59,0,1.02,0.14,1.31,0.42s0.44,0.7,0.44,1.26S5.6,6.57,5.25,7.08s-0.9,1.01-1.62,1.48v0.86H2.41z M2.64,9.42V8.68h3.38v0.74 H2.64z"/><path class="st2" d="M6.79,8.18l0.78-3.99h0.84L7.62,8.18H6.79z M6.79,8.18l0.55-0.73h2.28v0.73H6.79z M9.54,9.42V3.88h0.81v5.55 H9.54z M10.27,8.18V7.46h0.6v0.73H10.27z"/></svg>