<?xml version="1.0" encoding="utf-8"?><svg version="1.1" xmlns="http://www.w3.org/2000/svg" width="13" height="13" viewBox="0 0 13 13"><style>.st0{fill:#fff;stroke:#bbb;stroke-width:0.77;stroke-miterlimit:10}.st1{fill:#5060cd}.st2{fill:#555}</style><path class="st0" d="M11.15,12.5H1.85c-0.74,0-1.35-0.6-1.35-1.35V1.85C0.5,1.1,1.1,0.5,1.85,0.5h9.31c0.74,0,1.35,0.6,1.35,1.35 v9.31C12.5,11.9,11.9,12.5,11.15,12.5z"/><polygon class="st1" points="0,6.5 0,0 6.5,0 "/><path class="st2" d="M2.41,9.42V8.53c0.86-0.47,1.5-0.97,1.92-1.48c0.42-0.51,0.63-1.04,0.63-1.58c0-0.32-0.08-0.56-0.23-0.71 S4.33,4.52,4.02,4.52c-0.21,0-0.43,0.06-0.66,0.18S2.93,4.99,2.77,5.19L2.23,4.65C2.41,4.4,2.66,4.19,2.99,4.03S3.67,3.8,4.03,3.8 c0.59,0,1.02,0.14,1.31,0.42s0.44,0.7,0.44,1.26S5.6,6.57,5.25,7.08s-0.9,1.01-1.62,1.48v0.86H2.41z M2.64,9.42V8.68h3.38v0.74 H2.64z"/><path class="st2" d="M7,7.53V7.18c0-1.06,0.27-1.87,0.81-2.42c0.54-0.55,1.36-0.86,2.46-0.91l0.08,0.74 C8.69,4.67,7.87,5.41,7.87,6.82v0.45L7,7.53z M8.88,9.5c-0.64,0-1.12-0.16-1.42-0.48C7.15,8.7,7,8.2,7,7.53l0.65-0.71h0.29 C8.02,6.52,8.17,6.3,8.4,6.14s0.52-0.24,0.85-0.24c0.48,0,0.86,0.15,1.12,0.45s0.39,0.72,0.39,1.27c0,0.59-0.17,1.05-0.5,1.38 S9.47,9.5,8.88,9.5z M8.9,8.78c0.33,0,0.59-0.1,0.77-0.31s0.28-0.49,0.28-0.85c0-0.32-0.08-0.57-0.26-0.74S9.28,6.63,8.96,6.63 c-0.36,0-0.64,0.09-0.84,0.28c-0.2,0.19-0.29,0.45-0.29,0.8c0,0.34,0.09,0.6,0.28,0.79S8.57,8.78,8.9,8.78z"/></svg>