<?xml version="1.0" encoding="utf-8"?><svg version="1.1" xmlns="http://www.w3.org/2000/svg" width="13" height="13" viewBox="0 0 13 13"><style>.bg{fill:#fff;stroke:#ccc;stroke-width:0.77;stroke-miterlimit:10;}.fg{fill:#BAD80A;}.tx{fill:#333;}</style><path class="bg" d="M11.2,12.5H1.8c-0.7,0-1.3-0.6-1.3-1.3V1.8c0-0.7,0.6-1.3,1.3-1.3h9.3c0.7,0,1.3,0.6,1.3,1.3v9.3C12.5,11.9,11.9,12.5,11.2,12.5z"/><polygon class="fg" points="0,6.5 0,0 6.5,0 "/><path class="tx" d="M2.6,9.3v-1C3.4,7.9,3.9,7.5,4.3,7s0.6-0.9,0.6-1.4c0-0.2-0.1-0.4-0.2-0.5C4.6,5,4.4,4.9,4.2,4.9C4,4.9,3.7,5,3.5,5.1C3.3,5.2,3.1,5.4,2.9,5.6L2.4,4.9c0.2-0.3,0.4-0.5,0.8-0.6C3.5,4.1,3.8,4,4.2,4c0.6,0,1,0.1,1.3,0.4c0.3,0.3,0.4,0.7,0.4,1.2c0,0.5-0.1,1-0.4,1.4S4.7,7.9,4.1,8.3v1H2.6z M2.8,9.3V8.4h3.3v0.9H2.8z"/><path class="tx" d="M8.7,9.4c-0.6,0-1-0.1-1.4-0.4C7,8.7,6.9,8.3,6.9,7.9c0-0.4,0.2-0.8,0.5-1c0.3-0.2,0.8-0.4,1.4-0.4c0.6,0,1,0.1,1.4,0.4c0.3,0.2,0.5,0.6,0.5,1c0,0.5-0.2,0.8-0.5,1.1C9.7,9.2,9.3,9.4,8.7,9.4z M8.7,6.6c-0.5,0-1-0.1-1.2-0.3C7.2,6,7,5.7,7,5.3c0-0.4,0.1-0.7,0.4-1C7.7,4.1,8.2,4,8.7,4s1,0.1,1.2,0.3c0.3,0.2,0.4,0.6,0.4,1c0,0.4-0.1,0.7-0.4,0.9C9.7,6.5,9.2,6.6,8.7,6.6z M8.7,8.4c0.3,0,0.5-0.1,0.6-0.2s0.2-0.3,0.2-0.5c0-0.2-0.1-0.4-0.2-0.5C9.2,7.1,9,7,8.7,7C8.4,7,8.2,7.1,8.1,7.2C8,7.3,7.9,7.5,7.9,7.7c0,0.2,0.1,0.4,0.2,0.5S8.4,8.4,8.7,8.4z M8.7,6.1c0.2,0,0.4,0,0.5-0.1s0.2-0.2,0.2-0.4c0-0.2-0.1-0.3-0.2-0.4S8.9,4.9,8.7,4.9S8.3,5,8.2,5.1S8,5.3,8,5.5c0,0.2,0.1,0.3,0.2,0.4S8.5,6.1,8.7,6.1z M8.1,6.7V6.3h1.2v0.4H8.1z"/></svg>