<?xml version="1.0" encoding="utf-8"?><svg version="1.1" xmlns="http://www.w3.org/2000/svg" width="13" height="13" viewBox="0 0 13 13"><style>.bg{fill:#fff;stroke:#ccc;stroke-width:0.77;stroke-miterlimit:10;}.fg{fill:#E74856;}.tx{fill:#333;}</style><path class="bg" d="M11.2,12.5H1.8c-0.7,0-1.3-0.6-1.3-1.3V1.8c0-0.7,0.6-1.3,1.3-1.3h9.3c0.7,0,1.3,0.6,1.3,1.3v9.3C12.5,11.9,11.9,12.5,11.2,12.5z"/><polygon class="fg" points="0,6.5 0,0 6.5,0 "/><path class="tx" d="M5.7,7.1L5.6,6.3c0.3,0,0.6-0.1,0.8-0.2C6.7,6,6.8,5.9,6.9,5.8C7,5.6,7.1,5.5,7.1,5.4c0-0.1,0-0.2-0.1-0.3C6.8,5,6.7,4.9,6.5,4.9c-0.2,0-0.4,0-0.6,0.1C5.6,5.1,5.4,5.2,5.2,5.4L4.7,4.7c0.2-0.2,0.5-0.4,0.8-0.5C5.8,4.1,6.2,4,6.5,4C7,4,7.4,4.1,7.7,4.3c0.3,0.2,0.4,0.5,0.4,0.9C8.1,5.5,8,5.8,7.7,6C7.5,6.3,7.2,6.4,6.9,6.5v0.4L5.7,7.1z M6.2,9.4c-0.3,0-0.5,0-0.8,0C5.2,9.3,5,9.2,4.8,9.2l0.1-0.9c0.2,0,0.3,0.1,0.5,0.1c0.2,0,0.4,0.1,0.7,0.1c0.3,0,0.6-0.1,0.7-0.2S7.2,8,7.2,7.8c0-0.2-0.1-0.3-0.2-0.4C6.9,7.3,6.8,7.2,6.5,7.2C6.3,7.1,6.1,7.1,5.8,7.1H5.7L5.6,6.3l1.1,0.4c0.5,0,0.8,0.1,1.1,0.3C8,7.2,8.2,7.5,8.2,7.9C8.2,8.4,8,8.7,7.7,9C7.3,9.2,6.8,9.4,6.2,9.4z"/></svg>