<?xml version="1.0" encoding="utf-8"?><svg version="1.1" xmlns="http://www.w3.org/2000/svg" xmlns:xlink="http://www.w3.org/1999/xlink" width="13" height="13" x="0px" y="0px" viewBox="0 0 13 13" style="enable-background:new 0 0 13 13;" xml:space="preserve"><style type="text/css">.st0{fill:#FFFFFF;stroke:#BEBEBE;stroke-width:0.77;stroke-miterlimit:10;} .st1{fill:#eaaa0c;} .st2{fill:#5D5D5D;}</style><path class="st0" d="M11.15,12.5H1.85c-0.74,0-1.35-0.6-1.35-1.35V1.85C0.5,1.1,1.1,0.5,1.85,0.5h9.31c0.74,0,1.35,0.6,1.35,1.35 v9.31C12.5,11.9,11.9,12.5,11.15,12.5z"/><polygon class="st1" points="0,6.5 0,0 6.5,0 "/><path class="st2" d="M5.64,6.88L5.55,6.38c0.41-0.05,0.75-0.14,1-0.24S6.99,5.9,7.12,5.75S7.3,5.42,7.3,5.24 c0-0.23-0.07-0.4-0.22-0.53C6.93,4.58,6.72,4.52,6.45,4.52c-0.2,0-0.41,0.05-0.63,0.15S5.38,4.91,5.18,5.11L4.64,4.58 C4.88,4.3,5.16,4.11,5.48,3.98S6.14,3.8,6.53,3.8c0.5,0,0.9,0.11,1.17,0.32s0.41,0.52,0.41,0.92c0,0.33-0.11,0.62-0.32,0.87 S7.3,6.32,6.96,6.42v0.47H5.64z M6.16,9.5c-0.29,0-0.55-0.02-0.79-0.05S4.93,9.37,4.74,9.31l0.1-0.75C5,8.61,5.18,8.66,5.38,8.71 s0.45,0.07,0.76,0.07c0.41,0,0.72-0.08,0.95-0.24C7.3,8.38,7.41,8.15,7.41,7.86c0-0.21-0.06-0.39-0.19-0.53S6.9,7.07,6.66,7 C6.42,6.92,6.12,6.88,5.77,6.88H5.64L5.55,6.38l1.2,0.09C7.18,6.5,7.54,6.65,7.82,6.9C8.1,7.16,8.23,7.5,8.23,7.94 c0,0.5-0.18,0.88-0.54,1.15S6.82,9.5,6.16,9.5z"/></svg>