<?xml version="1.0" encoding="utf-8"?><svg version="1.1" xmlns="http://www.w3.org/2000/svg" width="13" height="13"  viewBox="0 0 13 13"><style type="text/css">.st0{fill:#FFFFFF;stroke:#BEBEBE;stroke-width:0.77;stroke-miterlimit:10;} .st1{fill:#472eb6;} .st2{fill:#5D5D5D;}</style><path class="st0" d="M11.15,12.5h-9.3c-0.74,0-1.35-0.6-1.35-1.35v-9.3C0.5,1.1,1.1,0.5,1.85,0.5h9.31c0.74,0,1.35,0.6,1.35,1.35 v9.31C12.5,11.9,11.9,12.5,11.15,12.5z"/><polygon class="st1" points="0,6.5 0,0 6.5,0 "/><path class="st2" d="M3.3,6.88l-0.1-0.5c0.41-0.05,0.75-0.14,1-0.24S4.65,5.9,4.77,5.75s0.18-0.32,0.18-0.51 c0-0.23-0.07-0.4-0.22-0.53S4.38,4.52,4.1,4.52c-0.2,0-0.41,0.05-0.63,0.15S3.04,4.91,2.84,5.11L2.3,4.58 c0.24-0.28,0.52-0.47,0.83-0.6S3.8,3.8,4.19,3.8c0.51,0,0.9,0.11,1.17,0.32s0.41,0.52,0.41,0.92c0,0.33-0.11,0.62-0.32,0.87 S4.96,6.32,4.62,6.42v0.47L3.3,6.88L3.3,6.88z M3.82,9.5c-0.29,0-0.55-0.02-0.79-0.05S2.58,9.37,2.4,9.31l0.1-0.75 C2.66,8.6,2.84,8.65,3.04,8.7S3.49,8.77,3.8,8.77c0.41,0,0.72-0.08,0.95-0.24s0.34-0.39,0.34-0.68c0-0.21-0.06-0.39-0.19-0.53 S4.56,7.07,4.32,7c-0.25-0.08-0.55-0.12-0.9-0.12H3.3l-0.1-0.5l1.2,0.09C4.84,6.5,5.2,6.65,5.48,6.9s0.41,0.6,0.41,1.04 c0,0.5-0.18,0.88-0.54,1.15S4.48,9.5,3.82,9.5z"/><path class="st2" d="M8.84,9.5c-1.26,0-1.89-0.94-1.89-2.81c0-1.93,0.63-2.89,1.89-2.89s1.89,0.96,1.89,2.89 C10.73,8.56,10.1,9.5,8.84,9.5z M8.84,8.78c0.7,0,1.05-0.7,1.05-2.09c0-1.45-0.35-2.17-1.05-2.17S7.79,5.24,7.79,6.69 C7.79,8.08,8.14,8.78,8.84,8.78z"/></svg>