<?xml version="1.0" encoding="utf-8"?><svg version="1.1" xmlns="http://www.w3.org/2000/svg" width="13" height="13" viewBox="0 0 13 13"><style>.bg{fill:#fff;stroke:#ccc;stroke-width:0.77;stroke-miterlimit:10;}.fg{fill:#13A10E;}.tx{fill:#333;}</style><path class="bg" d="M11.2,12.5H1.8c-0.7,0-1.3-0.6-1.3-1.3V1.8c0-0.7,0.6-1.3,1.3-1.3h9.3c0.7,0,1.3,0.6,1.3,1.3v9.3C12.5,11.9,11.9,12.5,11.2,12.5z"/><polygon class="fg" points="0,6.5 0,0 6.5,0 "/><path class="tx" d="M3.5,7.1L3.4,6.3c0.3,0,0.6-0.1,0.8-0.2C4.5,6,4.6,5.9,4.7,5.8s0.2-0.2,0.2-0.4c0-0.1,0-0.2-0.1-0.3C4.6,5,4.5,4.9,4.3,4.9c-0.2,0-0.4,0-0.6,0.1C3.4,5.1,3.2,5.2,3,5.4L2.5,4.7C2.7,4.4,3,4.3,3.3,4.2C3.6,4.1,4,4,4.3,4c0.5,0,0.9,0.1,1.1,0.3c0.3,0.2,0.4,0.5,0.4,0.9c0,0.3-0.1,0.6-0.3,0.9C5.3,6.3,5,6.4,4.7,6.5v0.4L3.5,7.1z M4,9.4c-0.3,0-0.5,0-0.8,0C3,9.3,2.8,9.2,2.6,9.2l0.1-0.9c0.2,0,0.3,0.1,0.5,0.1c0.2,0,0.4,0.1,0.7,0.1c0.3,0,0.6-0.1,0.7-0.2C4.9,8.2,5,8,5,7.8c0-0.2-0.1-0.3-0.2-0.4C4.7,7.3,4.6,7.2,4.4,7.2C4.1,7.1,3.9,7.1,3.6,7.1H3.5L3.4,6.3l1.1,0.4c0.5,0,0.8,0.1,1.1,0.3C5.9,7.2,6,7.5,6,7.9C6,8.4,5.8,8.7,5.5,9C5.1,9.2,4.6,9.4,4,9.4z"/><path class="tx" d="M6.7,8.2l0.6-3.9h1L7.7,8.2H6.7z M6.7,8.2l0.6-0.9h2v0.9H6.7z M9.2,9.3V4.1h1v5.2H9.2z M10.1,8.2V7.4h0.6v0.9H10.1z"/></svg>