<?xml version="1.0" encoding="utf-8"?><svg version="1.1" xmlns="http://www.w3.org/2000/svg" width="13" height="13" viewBox="0 0 13 13"><style>.bg{fill:#fff;stroke:#ccc;stroke-width:0.77;stroke-miterlimit:10;}.fg{fill:#69EAFF;}.tx{fill:#333;}</style><path class="bg" d="M11.2,12.5H1.8c-0.7,0-1.3-0.6-1.3-1.3V1.8c0-0.7,0.6-1.3,1.3-1.3h9.3c0.7,0,1.3,0.6,1.3,1.3v9.3C12.5,11.9,11.9,12.5,11.2,12.5z"/><polygon class="fg" points="0,6.5 0,0 6.5,0 "/><path class="tx" d="M2.3,8.2L3,4.4h1L3.3,8.2H2.3z M2.3,8.2l0.6-0.9h2v0.9H2.3z M4.8,9.3V4.1h1v5.2H4.8z M5.7,8.2V7.4h0.6v0.9H5.7z"/><path class="tx" d="M7.1,9.3V8.4h1.3v0.9H7.1z M7.1,5.5V4.5l1.2-0.4V5L7.1,5.5z M8.3,9.3V4.1h1v5.2H8.3z M9.2,9.3V8.4h1.2v0.9H9.2z"/></svg>