<?xml version="1.0" encoding="utf-8"?><svg version="1.1" xmlns="http://www.w3.org/2000/svg" width="13" height="13" viewBox="0 0 13 13"><style>.bg{fill:#fff;stroke:#ccc;stroke-width:0.77;stroke-miterlimit:10;}.fg{fill:#00BCF2;}.tx{fill:#333;}</style><path class="bg" d="M11.2,12.5H1.8c-0.7,0-1.3-0.6-1.3-1.3V1.8c0-0.7,0.6-1.3,1.3-1.3h9.3c0.7,0,1.3,0.6,1.3,1.3v9.3C12.5,11.9,11.9,12.5,11.2,12.5z"/><polygon class="fg" points="0,6.5 0,0 6.5,0 "/><path class="tx" d="M2.3,8.2L3,4.4h1L3.3,8.2H2.3z M2.3,8.2l0.6-0.9h2v0.9H2.3z M4.8,9.3V4.1h1v5.2H4.8z M5.7,8.2V7.4h0.6v0.9H5.7z"/><path class="tx" d="M7.9,7.1L7.8,6.3c0.3,0,0.6-0.1,0.8-0.2S9,5.9,9.1,5.8c0.1-0.1,0.2-0.2,0.2-0.4c0-0.1,0-0.2-0.1-0.3C9,5,8.9,4.9,8.7,4.9c-0.2,0-0.4,0-0.6,0.1C7.8,5.1,7.6,5.2,7.4,5.4L6.9,4.7c0.2-0.2,0.5-0.4,0.8-0.5C8,4.1,8.4,4,8.7,4c0.5,0,0.9,0.1,1.1,0.3c0.3,0.2,0.4,0.5,0.4,0.9c0,0.3-0.1,0.6-0.3,0.9C9.7,6.3,9.4,6.4,9.1,6.5v0.4L7.9,7.1z M8.4,9.4c-0.3,0-0.5,0-0.8,0C7.4,9.3,7.2,9.2,7,9.2l0.1-0.9c0.2,0,0.3,0.1,0.5,0.1c0.2,0,0.4,0.1,0.7,0.1c0.3,0,0.6-0.1,0.7-0.2C9.3,8.2,9.4,8,9.4,7.8c0-0.2-0.1-0.3-0.2-0.4S8.9,7.2,8.7,7.2C8.5,7.1,8.3,7.1,8,7.1H7.9L7.8,6.3l1.1,0.4C9.3,6.6,9.7,6.8,10,7c0.3,0.2,0.4,0.5,0.4,0.9c0,0.5-0.2,0.8-0.5,1.1C9.5,9.2,9,9.4,8.4,9.4z"/></svg>