<?xml version="1.0" encoding="utf-8"?><svg version="1.1" xmlns="http://www.w3.org/2000/svg" width="13" height="13" viewBox="0 0 13 13"><style>.bg{fill:#fff;stroke:#ccc;stroke-width:0.77;stroke-miterlimit:10;}.fg{fill:#C50F1F;}.tx{fill:#333;}</style><path class="bg" d="M11.2,12.5H1.8c-0.7,0-1.3-0.6-1.3-1.3V1.8c0-0.7,0.6-1.3,1.3-1.3h9.3c0.7,0,1.3,0.6,1.3,1.3v9.3C12.5,11.9,11.9,12.5,11.2,12.5z"/><polygon class="fg" points="0,6.5 0,0 6.5,0 "/><path class="tx" d="M6.5,9.4c-0.6,0-1-0.1-1.3-0.4C4.9,8.6,4.7,8.2,4.7,7.7h1c0,0.2,0.1,0.4,0.2,0.5c0.1,0.1,0.3,0.2,0.6,0.2S7,8.4,7.1,8.2c0.1-0.2,0.2-0.4,0.2-0.6c0-0.2-0.1-0.4-0.2-0.6C7,6.9,6.8,6.8,6.5,6.8C6.2,6.8,6,6.9,5.7,7l0.2-0.9C6,6,6.2,6,6.3,6c0.2,0,0.3-0.1,0.5-0.1c0.5,0,0.8,0.2,1.1,0.5c0.3,0.3,0.4,0.7,0.4,1.2c0,0.4-0.1,0.7-0.2,0.9C8,8.8,7.8,9,7.5,9.1S6.9,9.4,6.5,9.4z M5,7l0.1-2.9h1L6,6.3L5.7,7H5z M5.5,5L5.5,4.1H8V5H5.5z"/></svg>