<?xml version="1.0" encoding="utf-8"?><svg version="1.1" xmlns="http://www.w3.org/2000/svg" xmlns:xlink="http://www.w3.org/1999/xlink" width="13" height="13" x="0px" y="0px" viewBox="0 0 13 13" style="enable-background:new 0 0 13 13;" xml:space="preserve"><style type="text/css">.st0{fill:#FFFFFF;stroke:#BEBEBE;stroke-width:0.77;stroke-miterlimit:10;} .st1{fill:#d37918;} .st2{fill:#5D5D5D;}</style><path class="st0" d="M11.15,12.5H1.85c-0.74,0-1.35-0.6-1.35-1.35V1.85C0.5,1.1,1.1,0.5,1.85,0.5h9.31c0.74,0,1.35,0.6,1.35,1.35 v9.31C12.5,11.9,11.9,12.5,11.15,12.5z"/><polygon class="st1" points="0,6.5 0,0 6.5,0 "/><path class="st2" d="M6.55,9.5c-0.6,0-1.06-0.14-1.39-0.43S4.67,8.39,4.67,7.87h0.84c0,0.29,0.09,0.51,0.27,0.67 s0.44,0.24,0.78,0.24c0.33,0,0.59-0.1,0.77-0.3C7.52,8.28,7.61,8,7.61,7.63c0-0.36-0.1-0.63-0.3-0.83 c-0.2-0.2-0.48-0.29-0.84-0.29S5.76,6.6,5.45,6.77L5.52,6.1c0.21-0.12,0.41-0.2,0.61-0.24s0.41-0.06,0.61-0.06 c0.54,0,0.95,0.16,1.25,0.48s0.44,0.77,0.44,1.35c0,0.4-0.07,0.73-0.22,1.01S7.85,9.14,7.57,9.28S6.95,9.5,6.55,9.5z M5.01,6.77 l0.08-2.89h0.84L5.84,6.28l-0.4,0.48H5.01z M5.46,4.6L5.39,3.88h2.69V4.6H5.46z"/></svg>