<?xml version="1.0" encoding="utf-8"?><svg version="1.1" xmlns="http://www.w3.org/2000/svg" width="13" height="13" viewBox="0 0 13 13"><style>.bg{fill:#fff;stroke:#ccc;stroke-width:0.77;stroke-miterlimit:10;}.fg{fill:#B4A0FF;}.tx{fill:#333;}</style><path class="bg" d="M11.2,12.5H1.8c-0.7,0-1.3-0.6-1.3-1.3V1.8c0-0.7,0.6-1.3,1.3-1.3h9.3c0.7,0,1.3,0.6,1.3,1.3v9.3C12.5,11.9,11.9,12.5,11.2,12.5z"/><polygon class="fg" points="0,6.5 0,0 6.5,0 "/><path class="tx" d="M4.3,9.4c-0.6,0-1-0.1-1.3-0.4C2.7,8.6,2.5,8.2,2.5,7.7h1c0,0.2,0.1,0.4,0.2,0.5c0.1,0.1,0.3,0.2,0.6,0.2s0.5-0.1,0.6-0.2s0.2-0.4,0.2-0.6c0-0.2-0.1-0.4-0.2-0.6C4.8,6.9,4.6,6.8,4.3,6.8C4,6.8,3.8,6.9,3.5,7l0.2-0.9C3.8,6,4,6,4.1,6c0.2,0,0.3-0.1,0.5-0.1c0.5,0,0.8,0.2,1.1,0.5C6,6.7,6.2,7.1,6.2,7.6c0,0.4-0.1,0.7-0.2,0.9C5.8,8.8,5.6,9,5.3,9.1C5,9.3,4.7,9.4,4.3,9.4z M2.8,7l0.1-2.9h1L3.8,6.3L3.5,7H2.8z M3.3,5L3.3,4.1h2.6V5H3.3z"/><path class="tx" d="M6.9,7.5V7.2c0-1,0.3-1.7,0.8-2.2C8.2,4.4,9,4.1,10.1,4.1L10.2,5C8.7,5.1,7.9,5.7,7.9,6.9v0.3L6.9,7.5z M8.7,9.4c-0.6,0-1-0.2-1.3-0.5C7.1,8.5,6.9,8.1,6.9,7.5l0.8-0.7H8c0.1-0.3,0.2-0.5,0.4-0.6C8.6,6.1,8.9,6,9.1,6c0.5,0,0.8,0.1,1.1,0.4c0.2,0.3,0.4,0.7,0.4,1.2c0,0.5-0.2,1-0.5,1.3C9.8,9.2,9.3,9.4,8.7,9.4z M8.7,8.4c0.3,0,0.5-0.1,0.6-0.2c0.1-0.1,0.2-0.3,0.2-0.6c0-0.2-0.1-0.4-0.2-0.5C9.2,7,9,6.9,8.8,6.9C8.5,6.9,8.3,7,8.1,7.1C8,7.3,7.9,7.4,7.9,7.7c0,0.2,0.1,0.4,0.2,0.5C8.3,8.4,8.5,8.4,8.7,8.4z"/></svg>