<?xml version="1.0" encoding="utf-8"?><svg version="1.1" xmlns="http://www.w3.org/2000/svg" xmlns:xlink="http://www.w3.org/1999/xlink" width="13" height="13" x="0px" y="0px" viewBox="0 0 13 13" style="enable-background:new 0 0 13 13;" xml:space="preserve"><style type="text/css">.st0{fill:#FFFFFF;stroke:#BEBEBE;stroke-width:0.77;stroke-miterlimit:10;} .st1{fill:#c55c1f;} .st2{fill:#5D5D5D;}</style><path class="st0" d="M11.15,12.5H1.85c-0.74,0-1.35-0.6-1.35-1.35V1.85C0.5,1.1,1.1,0.5,1.85,0.5h9.31c0.74,0,1.35,0.6,1.35,1.35 v9.31C12.5,11.9,11.9,12.5,11.15,12.5z"/><polygon class="st1" points="0,6.5 0,0 6.5,0 "/><path class="st2" d="M4.66,7.53V7.18c0-1.06,0.27-1.87,0.81-2.42s1.36-0.86,2.46-0.91L8,4.6C6.35,4.67,5.52,5.41,5.52,6.82v0.45 L4.66,7.53z M6.53,9.5c-0.64,0-1.12-0.16-1.42-0.48S4.66,8.2,4.66,7.53L5.3,6.81h0.29C5.67,6.52,5.83,6.3,6.06,6.14 s0.52-0.24,0.85-0.24c0.48,0,0.86,0.15,1.12,0.45s0.39,0.72,0.39,1.27c0,0.59-0.17,1.05-0.5,1.38S7.13,9.5,6.53,9.5z M6.56,8.78 c0.33,0,0.59-0.1,0.77-0.31c0.18-0.2,0.28-0.49,0.28-0.85c0-0.32-0.08-0.57-0.26-0.74S6.94,6.63,6.62,6.63 c-0.36,0-0.64,0.09-0.84,0.28c-0.2,0.19-0.29,0.45-0.29,0.8c0,0.34,0.09,0.6,0.28,0.79S6.22,8.78,6.56,8.78z"/></svg>