<?xml version="1.0" encoding="utf-8"?><svg version="1.1" xmlns="http://www.w3.org/2000/svg" width="13" height="13" viewBox="0 0 13 13"><style>.bg{fill:#fff;stroke:#ccc;stroke-width:0.77;stroke-miterlimit:10;}.fg{fill:#EEC7C2;}.tx{fill:#333;}</style><path class="bg" d="M11.2,12.5H1.8c-0.7,0-1.3-0.6-1.3-1.3V1.8c0-0.7,0.6-1.3,1.3-1.3h9.3c0.7,0,1.3,0.6,1.3,1.3v9.3C12.5,11.9,11.9,12.5,11.2,12.5z"/><polygon class="fg" points="0,6.5 0,0 6.5,0 "/><path class="tx" d="M4.7,7.5V7.2c0-1,0.3-1.7,0.8-2.2s1.3-0.8,2.4-0.8L8,5C6.5,5.1,5.7,5.7,5.7,6.9v0.3L4.7,7.5z M6.5,9.4c-0.6,0-1-0.2-1.3-0.5C4.9,8.5,4.7,8.1,4.7,7.5l0.8-0.7h0.3C5.9,6.6,6,6.4,6.2,6.2C6.4,6.1,6.7,6,7,6C7.4,6,7.8,6.1,8,6.4c0.2,0.3,0.4,0.7,0.4,1.2c0,0.5-0.2,1-0.5,1.3C7.6,9.2,7.1,9.4,6.5,9.4z M6.5,8.4c0.3,0,0.5-0.1,0.6-0.2c0.1-0.1,0.2-0.3,0.2-0.6c0-0.2-0.1-0.4-0.2-0.5C7,7,6.8,6.9,6.6,6.9C6.3,6.9,6.1,7,5.9,7.1C5.8,7.3,5.7,7.4,5.7,7.7c0,0.2,0.1,0.4,0.2,0.5C6.1,8.4,6.3,8.4,6.5,8.4z"/></svg>