<?xml version="1.0" encoding="utf-8"?><svg version="1.1" xmlns="http://www.w3.org/2000/svg" width="13" height="13" viewBox="0 0 13 13"><style>.bg{fill:#fff;stroke:#ccc;stroke-width:0.77;stroke-miterlimit:10;}.fg{fill:#5E4A9D;}.tx{fill:#333;}</style><path class="bg" d="M11.2,12.5H1.8c-0.7,0-1.3-0.6-1.3-1.3V1.8c0-0.7,0.6-1.3,1.3-1.3h9.3c0.7,0,1.3,0.6,1.3,1.3v9.3C12.5,11.9,11.9,12.5,11.2,12.5z"/><polygon class="fg" points="0,6.5 0,0 6.5,0 "/><path class="tx" d="M2.5,7.5V7.2c0-1,0.3-1.7,0.8-2.2s1.3-0.8,2.4-0.8L5.8,5C4.3,5.1,3.5,5.7,3.5,6.9v0.3L2.5,7.5z M4.3,9.4c-0.6,0-1-0.2-1.3-0.5C2.7,8.5,2.5,8.1,2.5,7.5l0.8-0.7h0.3C3.7,6.6,3.8,6.4,4,6.2C4.2,6.1,4.5,6,4.8,6c0.5,0,0.8,0.1,1.1,0.4s0.4,0.7,0.4,1.2s-0.2,1-0.5,1.3C5.4,9.2,4.9,9.4,4.3,9.4z M4.3,8.4c0.3,0,0.5-0.1,0.6-0.2C5,8.1,5.1,7.9,5.1,7.6c0-0.2-0.1-0.4-0.2-0.5S4.6,6.9,4.4,6.9C4.1,6.9,3.9,7,3.8,7.1C3.6,7.3,3.5,7.4,3.5,7.7c0,0.2,0.1,0.4,0.2,0.5C3.9,8.4,4.1,8.4,4.3,8.4z"/><path class="tx" d="M8.7,9.4c-1.2,0-1.8-0.9-1.8-2.6C6.9,4.9,7.5,4,8.7,4s1.8,0.9,1.8,2.7S9.9,9.4,8.7,9.4z M8.7,8.4c0.6,0,0.8-0.6,0.8-1.7c0-1.2-0.3-1.8-0.8-1.8c-0.6,0-0.8,0.6-0.8,1.8C7.8,7.9,8.1,8.4,8.7,8.4z"/></svg>