<?xml version="1.0" encoding="utf-8"?><svg version="1.1" xmlns="http://www.w3.org/2000/svg" xmlns:xlink="http://www.w3.org/1999/xlink" width="13" height="13" x="0px" y="0px" viewBox="0 0 13 13" style="enable-background:new 0 0 13 13;" xml:space="preserve"><style type="text/css">.st0{fill:#FFFFFF;stroke:#BEBEBE;stroke-width:0.77;stroke-miterlimit:10;} .st1{fill:#af2c2b;} .st2{fill:#5D5D5D;}</style><path class="st0" d="M11.15,12.5H1.85c-0.74,0-1.35-0.6-1.35-1.35V1.85C0.5,1.1,1.1,0.5,1.85,0.5h9.31c0.74,0,1.35,0.6,1.35,1.35 v9.31C12.5,11.9,11.9,12.5,11.15,12.5z"/><polygon class="st1" points="0,6.5 0,0 6.5,0 "/><path class="st2" d="M6.5,9.5c-0.6,0-1.07-0.14-1.4-0.42S4.61,8.41,4.61,7.9c0-0.47,0.16-0.83,0.49-1.08 C5.43,6.57,5.9,6.44,6.5,6.44s1.07,0.13,1.4,0.38C8.23,7.07,8.39,7.43,8.39,7.9c0,0.51-0.17,0.9-0.49,1.18S7.1,9.5,6.5,9.5z  M6.5,6.51c-0.55,0-0.98-0.11-1.28-0.34S4.77,5.62,4.77,5.2c0-0.45,0.15-0.79,0.46-1.04S5.95,3.8,6.5,3.8 c0.55,0,0.98,0.12,1.28,0.37S8.23,4.76,8.23,5.2c0,0.41-0.15,0.73-0.45,0.96S7.05,6.51,6.5,6.51z M6.5,8.78 c0.34,0,0.61-0.08,0.79-0.24c0.19-0.16,0.28-0.39,0.28-0.68c0-0.31-0.09-0.56-0.28-0.73C7.11,6.96,6.84,6.87,6.5,6.87 S5.9,6.96,5.71,7.13C5.52,7.31,5.43,7.55,5.43,7.86c0,0.29,0.09,0.52,0.28,0.68S6.16,8.78,6.5,8.78z M6.5,6.12 c0.29,0,0.52-0.07,0.68-0.2S7.41,5.6,7.41,5.36c0-0.27-0.08-0.48-0.24-0.62S6.79,4.52,6.5,4.52S5.98,4.59,5.82,4.74 S5.59,5.09,5.59,5.36c0,0.24,0.08,0.42,0.24,0.56S6.21,6.12,6.5,6.12z M5.85,6.67v-0.4h1.3v0.4H5.85z"/></svg>