<?xml version="1.0" encoding="utf-8"?><svg version="1.1" xmlns="http://www.w3.org/2000/svg" width="13" height="13" viewBox="0 0 13 13"><style>.bg{fill:#fff;stroke:#ccc;stroke-width:0.77;stroke-miterlimit:10;}.fg{fill:#EF6950;}.tx{fill:#333;}</style><path class="bg" d="M11.2,12.5H1.8c-0.7,0-1.3-0.6-1.3-1.3V1.8c0-0.7,0.6-1.3,1.3-1.3h9.3c0.7,0,1.3,0.6,1.3,1.3v9.3C12.5,11.9,11.9,12.5,11.2,12.5z"/><polygon class="fg" points="0,6.5 0,0 6.5,0 "/><path class="tx" d="M6.5,9.4c-0.6,0-1-0.1-1.4-0.4S4.7,8.3,4.7,7.9c0-0.4,0.2-0.8,0.5-1c0.3-0.2,0.8-0.4,1.4-0.4c0.6,0,1,0.1,1.4,0.4c0.3,0.2,0.5,0.6,0.5,1c0,0.5-0.2,0.8-0.5,1.1C7.5,9.2,7.1,9.4,6.5,9.4z M6.5,6.6c-0.5,0-1-0.1-1.2-0.3C5,6,4.8,5.7,4.8,5.3c0-0.4,0.1-0.7,0.4-1C5.5,4.1,6,4,6.5,4s1,0.1,1.2,0.3c0.3,0.2,0.4,0.6,0.4,1C8.2,5.7,8,6,7.7,6.2C7.5,6.5,7,6.6,6.5,6.6z M6.5,8.4c0.3,0,0.5-0.1,0.6-0.2c0.1-0.1,0.2-0.3,0.2-0.5c0-0.2-0.1-0.4-0.2-0.5C7,7.1,6.8,7,6.5,7C6.2,7,6,7.1,5.9,7.2C5.8,7.3,5.7,7.5,5.7,7.7c0,0.2,0.1,0.4,0.2,0.5C6,8.4,6.2,8.4,6.5,8.4z M6.5,6.1c0.2,0,0.4,0,0.5-0.1s0.2-0.2,0.2-0.4c0-0.2-0.1-0.3-0.2-0.4S6.7,4.9,6.5,4.9S6.1,5,6,5.1S5.8,5.3,5.8,5.5c0,0.2,0.1,0.3,0.2,0.4S6.3,6.1,6.5,6.1z M5.9,6.7V6.3h1.2v0.4H5.9z"/></svg>