<?xml version="1.0" encoding="utf-8"?><svg version="1.1" xmlns="http://www.w3.org/2000/svg" xmlns:xlink="http://www.w3.org/1999/xlink" width="13" height="13" x="0px" y="0px" viewBox="0 0 13 13" style="enable-background:new 0 0 13 13;" xml:space="preserve"><style type="text/css">.st0{fill:#FFFFFF;stroke:#BEBEBE;stroke-width:0.77;stroke-miterlimit:10;} .st1{fill:#a51930;} .st2{fill:#5D5D5D;}</style><path class="st0" d="M11.15,12.5H1.85c-0.74,0-1.35-0.6-1.35-1.35V1.85C0.5,1.1,1.1,0.5,1.85,0.5h9.31c0.74,0,1.35,0.6,1.35,1.35 v9.31C12.5,11.9,11.9,12.5,11.15,12.5z"/><polygon class="st1" points="0,6.5 0,0 6.5,0 "/><path class="st2" d="M6.12,7.45C5.64,7.45,5.27,7.3,5,7C4.74,6.7,4.61,6.27,4.61,5.73c0-0.59,0.17-1.05,0.5-1.38 s0.8-0.49,1.4-0.49c0.64,0,1.12,0.16,1.42,0.48s0.46,0.82,0.46,1.5L7.73,6.54H7.45C7.37,6.83,7.21,7.05,6.98,7.21 C6.75,7.37,6.46,7.45,6.12,7.45z M5.12,9.5L5.04,8.76c1.65-0.07,2.48-0.81,2.48-2.23V6.09l0.87-0.26v0.34 c0,1.06-0.27,1.86-0.81,2.42C7.04,9.14,6.22,9.45,5.12,9.5z M6.42,6.73c0.36,0,0.64-0.09,0.84-0.28s0.29-0.45,0.29-0.8 c0-0.34-0.09-0.6-0.28-0.79S6.82,4.57,6.48,4.57c-0.33,0-0.59,0.1-0.77,0.3S5.43,5.36,5.43,5.73c0,0.32,0.09,0.57,0.26,0.74 S6.1,6.73,6.42,6.73z"/></svg>