<?xml version="1.0" encoding="utf-8"?><svg version="1.1" xmlns="http://www.w3.org/2000/svg" width="13" height="13" viewBox="0 0 13 13"><style>.bg{fill:#fff;stroke:#ccc;stroke-width:0.77;stroke-miterlimit:10;}.fg{fill:#F03A17;}.tx{fill:#333;}</style><path class="bg" d="M11.2,12.5H1.8c-0.7,0-1.3-0.6-1.3-1.3V1.8c0-0.7,0.6-1.3,1.3-1.3h9.3c0.7,0,1.3,0.6,1.3,1.3v9.3C12.5,11.9,11.9,12.5,11.2,12.5z"/><polygon class="fg" points="0,6.5 0,0 6.5,0 "/><path class="tx" d="M6.1,7.4C5.6,7.4,5.3,7.3,5,7C4.8,6.7,4.7,6.3,4.7,5.8c0-0.5,0.2-1,0.5-1.3c0.3-0.3,0.8-0.5,1.4-0.5c0.6,0,1,0.2,1.3,0.5c0.3,0.3,0.5,0.8,0.5,1.4L7.5,6.6H7.2C7.1,6.9,7,7.1,6.8,7.2C6.6,7.4,6.4,7.4,6.1,7.4z M5.1,9.4L5.1,8.4c1.5-0.1,2.2-0.7,2.2-1.9V6.3l1-0.4v0.3c0,1-0.3,1.7-0.8,2.2C7,9,6.2,9.3,5.1,9.4z M6.5,6.5c0.3,0,0.5-0.1,0.6-0.2C7.2,6.2,7.3,6,7.3,5.7c0-0.2-0.1-0.4-0.2-0.5C6.9,5.1,6.7,5,6.5,5S6,5.1,5.9,5.2C5.8,5.3,5.7,5.5,5.7,5.8c0,0.2,0.1,0.4,0.2,0.5C6,6.5,6.2,6.5,6.5,6.5z"/></svg>