<?xml version="1.0" encoding="UTF-8" standalone="no"?>
<svg xmlns="http://www.w3.org/2000/svg" version="1.1" width="1081.2933" height="1038.668">
<path d="m 51.709635,406.864 c 4.672,-15.893 18.133,-27.648 34.496,-30.144 L 383.52863,331.301 501.90763,74.789 c 6.976,-15.104 22.101,-24.789 38.741,-24.789 16.64,0 31.765,9.685 38.741,24.789 l 118.379,256.491 297.323,45.419 c 16.38397,2.496 29.82397,14.251 34.49607,30.144 4.672,15.893 -0.299,33.045 -12.7151,44.011 l -216.23497,190.848 59.157,295.893 c 3.328,16.64 -3.52,33.685 -17.451,43.392 -13.931,9.707 -32.32,10.219 -46.72,1.323 l -254.976,-156.885 -254.976,156.907 c -6.848,4.245 -14.613,6.336 -22.357,6.336 -8.533,0 -17.067,-2.56 -24.384,-7.659 -13.931,-9.707 -20.8,-26.731 -17.451,-43.392 L 280.63663,641.724 64.401635,450.876 c -12.395,-10.965 -17.365,-28.117 -12.693,-44.011 z" style="fill:#ffeb3b;fill-opacity:1;stroke:#000000;stroke-width:70;stroke-miterlimit:4;stroke-dasharray:none;stroke-opacity:1" />
</svg>
